# xmcd CD database file
#
# Track frame offsets:
#	150
#	21112
#	49575
#
# Disc length: 937 seconds
#
# Revision: 0
# Processed by: cddbd v1.5PL3 Copyright (c) Steve Scherf et al.
# Submitted via: CDex 1.51
#
DISCID=1a03a703
DTITLE=ABYSS - Mirage
DYEAR=1997
DGENRE=JPop
TTITLE0=Mirage
TTITLE1=Mirage 〜space cowgirl mix〜
TTITLE2=Mirage 〜back track〜
EXTD=YEAR: 1997
EXTT0=
EXTT1=
EXTT2=
PLAYORDER=
